<?xml version="1.0" encoding="UTF-8" standalone="no"?>
<svg
   xmlns:dc="http://purl.org/dc/elements/1.1/"
   xmlns:cc="http://creativecommons.org/ns#"
   xmlns:rdf="http://www.w3.org/1999/02/22-rdf-syntax-ns#"
   xmlns:svg="http://www.w3.org/2000/svg"
   xmlns="http://www.w3.org/2000/svg"
   id="svg24"
   xml:space="preserve"
   viewBox="0 0 1024 768"
   y="0px"
   x="0px"
   version="1.1"><metadata
     id="metadata28"><rdf:RDF><cc:Work
         rdf:about=""><dc:format>image/svg+xml</dc:format><dc:type
           rdf:resource="http://purl.org/dc/dcmitype/StillImage" /></cc:Work></rdf:RDF></metadata><defs
     id="defs5"><filter
       id="squiggle"><feTurbulence
         seed="0"
         result="noise"
         numOctaves="3"
         baseFrequency="0.03"
         id="turbulence"><animate
           repeatCount="indefinite"
           dur="10s"
           to="80"
           from="1"
           attributeName="seed"
           attributeType="XML" /></feTurbulence><feDisplacementMap
         scale="6"
         in2="noise"
         in="SourceGraphic"
         id="displacement" /></filter></defs><g
     style="filter:url(#squiggle)"
     id="g22"><g
       transform="matrix(1.1617,0,0,1.1617,-82.779,-62.084)"
       id="logo-group"><path
         stroke-miterlimit="2"
         d="m 406.03,460.69 h -7.7198 v 26.163 h -3.6886 V 460.69 h -7.6997 v -3.1847 h 19.108 z"
         style="font-variant-ligatures:none;fill:#e7b207;stroke-width:0;stroke-miterlimit:2"
         id="path188689" /><path
         stroke-miterlimit="2"
         d="m 416.05,467.28 q 2.0358,-2.6405 5.2003,-2.6405 5.7848,0 5.8655,7.7198 v 14.492 h -3.5475 v -14.331 q 0,-2.5598 -0.86672,-3.6281 -0.84657,-1.0884 -2.5598,-1.0884 -1.3303,0 -2.3986,0.88688 -1.0481,0.88687 -1.6931,2.318 v 15.843 h -3.5676 v -30.96 h 3.5676 z"
         style="font-variant-ligatures:none;fill:#e7b207;stroke-width:0;stroke-miterlimit:2"
         id="path188691" /><path
         stroke-miterlimit="2"
         d="m 443.98,468.38 q -0.74578,-0.14109 -1.6125,-0.14109 -2.7412,0 -3.8297,3.0033 v 15.601 h -3.5676 v -21.809 h 3.4669 l 0.0605,2.2172 q 1.4311,-2.6203 4.0514,-2.6203 0.84656,0 1.4109,0.28219 z"
         style="font-variant-ligatures:none;fill:#e7b207;stroke-width:0;stroke-miterlimit:2"
         id="path188693" /><path
         stroke-miterlimit="2"
         d="m 457.53,487.25 q -4.0716,0 -6.2484,-2.4188 -2.1769,-2.4389 -2.2172,-7.1353 v -2.6405 q 0,-4.8778 2.1164,-7.6392 2.1366,-2.7816 5.9461,-2.7816 3.8297,0 5.7244,2.4389 1.8947,2.4389 1.935,7.5989 v 2.3381 h -12.17 v 0.50391 q 0,3.5072 1.3102,5.0995 1.3303,1.5923 3.8095,1.5923 1.5722,0 2.7614,-0.58453 1.2094,-0.60469 2.2575,-1.8947 l 1.8544,2.2575 q -2.318,3.2653 -7.0748,3.2653 z m -0.41,-19.55 q -2.2172,0 -3.2855,1.5319 -1.0683,1.5117 -1.2094,4.7166 h 8.5866 v -0.48375 q -0.1411,-3.1041 -1.1288,-4.4344 -0.9675,-1.3303 -2.963,-1.3303 z"
         style="font-variant-ligatures:none;fill:#e7b207;stroke-width:0;stroke-miterlimit:2"
         id="path188695" /><path
         stroke-miterlimit="2"
         d="m 479.46,487.25 q -4.0716,0 -6.2484,-2.4188 -2.1769,-2.4389 -2.2172,-7.1353 v -2.6405 q 0,-4.8778 2.1164,-7.6392 2.1366,-2.7816 5.9461,-2.7816 3.8297,0 5.7244,2.4389 1.8947,2.4389 1.935,7.5989 v 2.3381 h -12.17 v 0.50391 q 0,3.5072 1.3102,5.0995 1.3303,1.5923 3.8095,1.5923 1.5722,0 2.7614,-0.58453 1.2094,-0.60469 2.2575,-1.8947 l 1.8544,2.2575 q -2.318,3.2653 -7.0748,3.2653 z m -0.41,-19.55 q -2.2172,0 -3.2855,1.5319 -1.0683,1.5117 -1.2094,4.7166 h 8.5866 v -0.48375 q -0.1411,-3.1041 -1.1288,-4.4344 -0.9675,-1.3303 -2.963,-1.3303 z"
         style="font-variant-ligatures:none;fill:#e7b207;stroke-width:0;stroke-miterlimit:2"
         id="path188697" /><path
         stroke-miterlimit="2"
         d="m 502.27,474.94 q 0,-4.7569 2.2978,-7.5183 2.318,-2.7816 6.1074,-2.7816 3.7894,0 6.0872,2.7009 2.318,2.7009 2.3784,7.357 v 2.2978 q 0,4.7367 -2.2978,7.4981 -2.2978,2.7614 -6.1275,2.7614 -3.7894,0 -6.0872,-2.6808 -2.2777,-2.6808 -2.3583,-7.2562 z m 3.5677,2.0559 q 0,3.3661 1.3102,5.3011 1.3303,1.9148 3.5677,1.9148 4.7166,0 4.8576,-6.8128 v -2.4591 q 0,-3.3459 -1.3303,-5.2809 -1.3303,-1.9552 -3.5676,-1.9552 -2.197,0 -3.5274,1.9552 -1.3102,1.935 -1.3102,5.2608 z"
         style="font-variant-ligatures:none;fill:#e7b207;stroke-width:0;stroke-miterlimit:2"
         id="path188699" /><path
         stroke-miterlimit="2"
         d="m 527.89,486.85 v -18.927 h -2.842 v -2.8823 h 2.842 v -2.5195 q 0.0605,-3.3258 1.673,-5.1802 1.6327,-1.8745 4.5956,-1.8745 1.0683,0 2.1567,0.34266 l -0.18142,3.0234 q -0.76594,-0.1814 -1.6326,-0.1814 -3.0436,0 -3.0436,4.3336 v 2.0559 h 3.7289 v 2.8823 h -3.7289 v 18.927 z"
         style="font-variant-ligatures:none;fill:#e7b207;stroke-width:0;stroke-miterlimit:2"
         id="path188701" /><path
         stroke-miterlimit="2"
         d="m 570.3,477.54 q -0.24187,4.7166 -2.6606,7.2159 -2.3986,2.4994 -6.7927,2.4994 -4.4142,0 -7.0144,-3.3459 -2.6002,-3.3661 -2.6002,-9.1106 v -5.3212 q 0,-5.7244 2.6606,-9.0502 2.6808,-3.3258 7.2966,-3.3258 4.253,0 6.5709,2.5598 2.3381,2.5397 2.5397,7.2764 h -3.7289 q -0.24188,-3.5878 -1.5117,-5.1197 -1.26982,-1.5319 -3.87,-1.5319 -3.0033,0 -4.6158,2.3583 -1.6125,2.3381 -1.6125,6.8733 v 5.3817 q 0,4.4545 1.4916,6.833 1.5117,2.3784 4.3941,2.3784 2.8824,0 4.1522,-1.4311 1.2698,-1.4311 1.5722,-5.1398 z"
         style="font-variant-ligatures:none;fill:#e7b207;stroke-width:0;stroke-miterlimit:2"
         id="path188703" /><path
         stroke-miterlimit="2"
         d="m 588.48,484.93 q -1.7738,2.318 -5.1802,2.318 -2.963,0 -4.4747,-2.0358 -1.5117,-2.0559 -1.5319,-5.9662 v -14.21 h 3.5475 v 13.95 q 0,5.0995 3.0638,5.0995 3.2452,0 4.4747,-2.9025 v -16.145 h 3.5677 v 21.809 h -3.3862 z"
         style="font-variant-ligatures:none;fill:#e7b207;stroke-width:0;stroke-miterlimit:2"
         id="path188705" /><path
         stroke-miterlimit="2"
         d="m 615.69,476.99 q 0,5.1802 -1.8745,7.7198 -1.8544,2.5397 -5.2608,2.5397 -3.2855,0 -5.0592,-2.4792 v 10.461 h -3.5475 v -30.194 h 3.225 l 0.18141,2.4188 q 1.7939,-2.8219 5.1398,-2.8219 3.5878,0 5.3616,2.4994 1.7738,2.4994 1.8342,7.478 z m -3.5475,-2.0358 q 0,-3.6684 -1.1288,-5.4019 -1.1288,-1.7536 -3.6281,-1.7536 -2.5598,0 -3.8902,2.5598 v 11.348 q 1.3102,2.4994 3.9305,2.4994 2.4188,0 3.5475,-1.7334 1.1489,-1.7536 1.1691,-5.3414 z"
         style="font-variant-ligatures:none;fill:#e7b207;stroke-width:0;stroke-miterlimit:2"
         id="path188707" /><path
         stroke-miterlimit="2"
         d="m 633.51,481.26 q 0,-1.1489 -0.86672,-1.9753 -0.86672,-0.82641 -3.3459,-1.935 -2.8823,-1.1892 -4.0716,-2.0358 -1.1691,-0.84656 -1.7536,-1.9148 -0.58454,-1.0884 -0.58454,-2.58 0,-2.6606 1.935,-4.4142 1.9552,-1.7738 4.9786,-1.7738 3.1847,0 5.1197,1.8544 1.935,1.8544 1.935,4.7569 h -3.5475 q 0,-1.4714 -0.98766,-2.4994 -0.98765,-1.0481 -2.5195,-1.0481 -1.5722,0 -2.4792,0.82641 -0.88688,0.80625 -0.88688,2.1769 0,1.0884 0.645,1.7536 0.66516,0.66515 3.1645,1.7536 3.9708,1.552 5.4019,3.0436 1.4311,1.4714 1.4311,3.7491 0,2.842 -1.9552,4.5553 -1.9552,1.6931 -5.2406,1.6931 -3.4064,0 -5.5228,-1.9552 -2.1164,-1.9552 -2.1164,-4.9584 h 3.5878 q 0.0605,1.8141 1.1086,2.842 1.0481,1.028 2.9428,1.028 1.7738,0 2.7009,-0.78609 0.92718,-0.80625 0.92718,-2.1567 z"
         style="font-variant-ligatures:none;fill:#e7b207;stroke-width:0;stroke-miterlimit:2"
         id="path188709" /><path
         stroke-miterlimit="2"
         d="m 363.95,340.68 c 19.699,-3.6288 38.102,-15.552 37.843,-33.437 0,-26.179 -26.698,-34.474 -57.024,-34.474 10.109,2.8512 17.107,16.848 17.107,33.696 0,16.848 -12.96,30.326 -25.661,33.437 12.96,3.888 25.661,22.291 25.661,44.582 0,22.291 -8.5536,40.954 -17.107,44.582 25.402,0 57.024,-16.589 57.024,-43.546 0,-22.81 -18.144,-39.139 -37.843,-44.842 z m -53.136,49.248 c -10.627,0 -19.181,8.5536 -19.181,19.181 0,10.886 8.5536,19.44 19.181,19.44 10.886,0 19.44,-8.5536 19.44,-19.44 0,-10.627 -8.5536,-19.181 -19.44,-19.181 z m 0,-78.278 c 10.886,0 19.44,-8.5536 19.44,-19.44 0,-10.627 -8.5536,-19.44 -19.44,-19.44 -10.627,0 -19.181,8.8128 -19.181,19.44 0,10.886 8.5536,19.44 19.181,19.44 z"
         style="font-variant-ligatures:none;fill:#e7b207;stroke-width:0;stroke-miterlimit:2"
         id="path188712" /><path
         stroke-miterlimit="2"
         d="m 731.08,403.92 c -45.619,10.109 -86.314,-10.886 -95.904,-53.136 -8.0352,-36.288 10.886,-63.245 27.734,-77.501 -41.99,6.9984 -70.762,46.138 -64.541,88.387 6.2208,42.509 45.619,72.058 88.387,65.837 18.144,-2.592 33.955,-11.146 45.619,-23.846 -0.2592,0.2592 -0.7776,0.2592 -1.296,0.2592 z m -34.214,-82.944 c 13.219,0 24.106,-10.627 24.106,-24.106 0,-13.219 -10.886,-24.106 -24.106,-24.106 -13.219,0 -24.106,10.886 -24.106,24.106 0,13.478 10.886,24.106 24.106,24.106 z"
         style="font-variant-ligatures:none;fill:#e7b207;stroke-width:0;stroke-miterlimit:2"
         id="path188716" /><path
         style="fill:#cd6847;stroke-width:0.62077999"
         d="m 498.2,306.06 c -0.0138,-0.003 -3.6708,2.6456 -8.1267,5.886 -4.456,3.24 -8.1211,5.9101 -8.1441,5.9332 -0.0331,0.0331 3.4205,0.0418 16.282,0.0411 12.84,-10e-4 16.312,-0.01 16.268,-0.0431 -0.0307,-0.0231 -3.7004,-2.6905 -8.1552,-5.927 -4.4549,-3.2369 -8.1112,-5.8873 -8.1248,-5.8901 z m -26.437,11.861 h -10.084 l -0.39624,1.2167 c -0.2178,0.66927 -1.6171,4.9737 -3.1091,9.565 -1.4921,4.5919 -2.7067,8.3551 -2.6988,8.3626 0.008,0.008 5.9298,-4.283 13.16,-9.5352 7.2303,-5.2512 13.161,-9.5619 13.179,-9.5787 0.0186,-0.0174 -4.2698,-0.0304 -10.051,-0.0304 z m 52.869,0.009 c -8.6506,-0.008 -10.084,-0.002 -10.026,0.0393 0.0373,0.0266 5.9701,4.3369 13.184,9.5787 7.2135,5.2412 13.12,9.5172 13.125,9.5023 0.005,-0.0152 -1.3855,-4.3213 -3.0902,-9.5694 l -3.0977,-9.5421 z m -26.427,4.9284 -14.71,-0.001 -4.5504,3.3063 c -2.5024,1.8183 -7.8666,5.7149 -11.92,8.6599 l -7.3687,5.3536 -4.5479,14 -4.5485,13.999 4.5481,14 4.5478,14 9.5781,6.959 c 5.2681,3.8274 10.632,7.7244 11.92,8.6593 l 2.3419,1.701 14.709,-10e-4 14.709,-0.001 11.871,-8.627 c 6.5294,-4.7448 11.892,-8.6475 11.917,-8.673 0.0252,-0.0252 2.0892,-6.3351 4.5868,-14.021 2.4972,-7.6866 4.534,-14.007 4.5257,-14.046 -0.008,-0.0387 -2.0454,-6.3221 -4.5274,-13.963 -2.482,-7.6412 -4.5384,-13.928 -4.5698,-13.971 -0.0314,-0.0432 -5.4,-3.9603 -11.93,-8.7053 l -11.876,-8.6283 z m -0.005,7.247 h 12.349 l 9.9841,7.2526 c 5.4911,3.9886 9.9977,7.2644 10.014,7.2799 0.0162,0.0148 1.7444,5.304 3.8399,11.753 2.0955,6.4493 3.8102,11.753 3.8102,11.785 0,0.0324 -1.7144,5.3358 -3.8102,11.786 -2.0954,6.4493 -3.8233,11.739 -3.8399,11.754 -0.0162,0.0152 -4.5226,3.2911 -10.014,7.2799 l -9.9822,7.2508 h -24.697 l -10.008,-7.2694 c -5.5042,-3.998 -10.011,-7.2719 -10.014,-7.275 -0.003,-0.003 -1.7258,-5.2978 -3.8271,-11.766 l -3.8209,-11.761 3.8212,-11.76 c 2.4637,-7.5816 3.8419,-11.774 3.8792,-11.801 0.0318,-0.0224 4.5381,-3.2966 10.014,-7.2756 l 9.9555,-7.2377 z m 42.933,7.1334 c -0.10285,-0.0756 -0.17879,-0.11598 -0.16878,-0.089 0.01,0.0266 2.2749,6.9987 5.0338,15.494 2.7585,8.4948 5.0255,15.458 5.0375,15.472 0.0121,0.0141 1.4231,-4.2865 3.1361,-9.557 1.7127,-5.2705 3.1095,-9.5868 3.1044,-9.5911 -0.005,-0.005 -3.5976,-2.6146 -7.9827,-5.7997 -4.3852,-3.1851 -8.0572,-5.8531 -8.1602,-5.9291 z m -85.724,-0.09 c -0.0162,0.001 -3.6866,2.6615 -8.1565,5.9108 -4.4698,3.2496 -8.1261,5.9208 -8.1254,5.936 3.4e-4,0.0155 1.3975,4.3282 3.1044,9.5843 1.7072,5.2561 3.114,9.5458 3.1264,9.5334 0.0124,-0.0131 2.2774,-6.9646 5.0334,-15.448 2.7557,-8.483 5.0189,-15.446 5.0289,-15.472 0.01,-0.0259 0.005,-0.0462 -0.0114,-0.0449 z m -10.051,31.09 c -0.0124,-0.0128 -1.4182,4.2741 -3.124,9.5266 -1.7058,5.2526 -3.1029,9.565 -3.1047,9.5843 -0.002,0.019 3.6593,2.6953 8.1354,5.9477 4.4764,3.252 8.1441,5.9077 8.1503,5.9011 0.007,-0.006 -2.2487,-6.9695 -5.0114,-15.474 -2.7626,-8.5041 -5.0334,-15.472 -5.0458,-15.486 z m 105.69,-0.03 c -0.007,-0.008 -0.0207,0.008 -0.03,0.0345 -0.009,0.0263 -2.2235,6.8429 -4.9205,15.148 -2.697,8.3048 -4.9565,15.259 -5.021,15.454 -0.0642,0.19467 -0.10631,0.35344 -0.0935,0.3531 0.0131,-6.2e-4 3.658,-2.6425 8.1,-5.8711 4.4422,-3.2283 8.1043,-5.8898 8.1379,-5.9139 l 0.0615,-0.0438 -3.1109,-9.5744 c -1.7109,-5.2657 -3.1168,-9.5799 -3.1237,-9.5874 z m -95.563,31.069 c -0.0155,-0.007 -0.0283,-0.003 -0.0283,0.008 0,0.0104 1.3961,4.3151 3.1029,9.5657 1.7065,5.2508 3.1095,9.5539 3.1178,9.5619 0.008,0.008 4.5461,0.0111 10.084,0.006 l 10.068,-0.006 -13.159,-9.5663 c -7.2365,-5.258 -13.171,-9.5601 -13.186,-9.5663 z m 85.426,0.0214 c -0.005,-0.0152 -5.9112,4.2613 -13.125,9.5024 -7.2135,5.2415 -13.146,9.552 -13.184,9.5787 -0.0587,0.0411 1.3748,0.0469 10.026,0.0394 l 10.093,-0.009 3.0995,-9.5421 c 1.7047,-5.2484 3.0957,-9.5545 3.0905,-9.5694 z m -42.705,19.129 c -14.102,0 -16.316,0.007 -16.273,0.049 0.0276,0.0269 3.698,2.6988 8.1559,5.9371 l 8.1056,5.8884 0.22987,-0.16706 c 0.12633,-0.0918 3.7867,-2.7502 8.1341,-5.9073 4.3472,-3.1571 7.9187,-5.7537 7.9367,-5.7703 0.0183,-0.0166 -7.1328,-0.0297 -16.29,-0.0297 z"
         id="icon" /></g></g></svg>